<svg xmlns="http://www.w3.org/2000/svg" xmlns:xlink="http://www.w3.org/1999/xlink" viewBox="0 0 120 121"><defs><path id="a" d="M.02.05h119.97v16.18H.02z"/><path id="c" d="M.21.07h9.25v7.42H.21z"/></defs><g fill="none" fill-rule="evenodd"><path fill="#FFFFFE" d="M30.74 98.75h3.75v8.44h-1.9v-1.72c-.35 1.19-1.09 1.9-2.52 1.9-2.27 0-3.3-1.8-3.3-4.25v-7.65c0-2.47 1.17-4.27 3.95-4.27 2.91 0 3.77 1.63 3.77 3.97v1.4h-2.4v-1.62c0-.97-.38-1.53-1.33-1.53-.94 0-1.36.67-1.36 1.63v8.48c0 .96.4 1.63 1.3 1.63.85 0 1.29-.48 1.29-1.5v-2.8h-1.25v-2.1M35.76 91.39h2.63v13.64h3.15v2.16h-5.78v-15.8M47.73 103.53v-8.48c0-.96-.41-1.63-1.36-1.63-.93 0-1.35.67-1.35 1.63v8.48c0 .96.42 1.64 1.35 1.64.95 0 1.36-.68 1.36-1.64m-5.34-.41v-7.65c0-2.47 1.2-4.26 3.98-4.26 2.8 0 4 1.79 4 4.26v7.65c0 2.44-1.2 4.26-4 4.26-2.78 0-3.98-1.82-3.98-4.26M54.27 100.08v4.95h1.16c.88 0 1.3-.45 1.3-1.29v-2.37c0-.84-.4-1.29-1.33-1.29h-1.13zm0-2.02h.93c.85 0 1.25-.45 1.25-1.29v-1.93c0-.86-.4-1.28-1.28-1.28h-.9v4.5zm-2.63-6.67h3.81c2.64 0 3.51 1.24 3.51 3.47v1.61c0 1.33-.48 2.17-1.57 2.52 1.32.3 1.97 1.19 1.97 2.63v2.1c0 2.24-1 3.47-3.63 3.47h-4.1V91.4zM63.22 102.18h2.1l-1.04-6.34h-.02l-1.04 6.34zm-3.3 5.01l2.95-15.8h3l2.99 15.8h-2.7l-.5-2.89h-2.79l-.46 2.9h-2.5zM69.71 91.39h2.64v13.64h3.14v2.16h-5.78v-15.8M82.64 98.75h3.74v8.44h-1.9v-1.72c-.34 1.19-1.08 1.9-2.52 1.9-2.26 0-3.3-1.8-3.3-4.25v-7.65c0-2.47 1.18-4.27 3.95-4.27 2.91 0 3.77 1.63 3.77 3.97v1.4h-2.4v-1.62c0-.97-.38-1.53-1.33-1.53-.94 0-1.36.67-1.36 1.63v8.48c0 .96.4 1.63 1.3 1.63.85 0 1.3-.48 1.3-1.5v-2.8h-1.25v-2.1M93 103.53v-8.48c0-.96-.43-1.63-1.37-1.63-.93 0-1.35.67-1.35 1.63v8.48c0 .96.42 1.64 1.35 1.64.94 0 1.36-.68 1.36-1.64m-5.34-.41v-7.65c0-2.47 1.2-4.26 3.98-4.26 2.8 0 4 1.79 4 4.26v7.65c0 2.44-1.2 4.26-4 4.26-2.78 0-3.98-1.82-3.98-4.26M99.44 102.18h2.1l-1.04-6.34h-.02l-1.04 6.34zm-3.3 5.01l2.95-15.8h3l2.99 15.8h-2.7l-.5-2.89H99.1l-.46 2.9h-2.5zM105.93 91.39h2.64v13.64h3.14v2.16h-5.78v-15.8"/><g transform="translate(0 91.15)"><mask id="b" fill="#fff"><use xlink:href="#a"/></mask><path fill="#FFFFFE" d="M112.43 12.64v-2.12h2.45v2.17c0 .88.4 1.4 1.3 1.4.83 0 1.2-.57 1.2-1.4v-.61c0-.91-.37-1.47-1.18-2.24l-1.55-1.56c-1.5-1.5-2.2-2.4-2.2-4.22v-.54c0-1.95 1.14-3.47 3.7-3.47 2.64 0 3.68 1.3 3.68 3.6v1.28h-2.4V3.55c0-.91-.42-1.35-1.25-1.35-.75 0-1.26.42-1.26 1.3v.33c0 .88.5 1.4 1.26 2.14l1.68 1.68C119.3 9.12 120 10 120 11.75v.77c0 2.17-1.16 3.7-3.84 3.7-2.68 0-3.72-1.5-3.72-3.58M0 .24h7v2.17H4.83v13.63H2.17V2.41H0V.24" mask="url(#b)"/></g><path fill="#FFFFFE" d="M13.17 100.23h-2.54v6.96H8v-15.8h2.63v6.69h2.54v-6.69h2.66v15.8h-2.66v-6.96M17.1 91.39h6.29v2.17h-3.65v4.52h2.61v2.15h-2.61v4.8h3.65v2.16H17.1v-15.8M39.81 28.94c1-1.7 2.2-3.27 3.6-4.66L31.63 11.26a40.6 40.6 0 0 0-7.47 9.81l15.64 7.87M68.65 19.74c1.78.83 3.44 1.88 4.93 3.12l11.8-13a40.1 40.1 0 0 0-10.46-6.59l-6.27 16.47M95.66 23.66l-15.63 7.87a22.78 22.78 0 0 1 1.56 5.57L99 35.45a40.36 40.36 0 0 0-3.33-11.8M78.9 29.25l15.64-7.87a40.56 40.56 0 0 0-7.3-9.8l-11.8 13a22.86 22.86 0 0 1 3.47 4.67M36.7 40.46l.03-1.06-17.39-1.57a40.83 40.83 0 0 0 1.1 12.4l16.8-4.86a23 23 0 0 1-.53-4.9M76.72 54.9a22.92 22.92 0 0 1-4.25 4.03l9.19 15.02a40.5 40.5 0 0 0 9-8.44l-13.94-10.6M81.84 40.46c0 1.67-.18 3.29-.52 4.85l16.8 4.87a40.66 40.66 0 0 0 1.1-12.2l-17.4 1.66.02.82M42.1 55.24L28.2 65.9a40.47 40.47 0 0 0 9.09 8.3l9.18-15a22.83 22.83 0 0 1-4.36-3.97M36.99 36.87a22.7 22.7 0 0 1 1.67-5.66l-15.63-7.86a40.42 40.42 0 0 0-3.45 11.94l17.41 1.58M79.52 75.3l-9.17-15c-1.66.96-3.46 1.7-5.35 2.2l3.24 17.35a39.5 39.5 0 0 0 11.28-4.55M80.65 47.77a22.9 22.9 0 0 1-2.44 5.07l13.95 10.63a40.39 40.39 0 0 0 5.27-10.83l-16.78-4.87M62.53 63.01a22.52 22.52 0 0 1-5.88.08L53.4 80.44a39.97 39.97 0 0 0 12.35-.1l-3.23-17.33M60.71 17.72c1.94.13 3.81.5 5.59 1.1l6.27-16.47A39.4 39.4 0 0 0 60.71.08v17.64M54.16 62.66a22.3 22.3 0 0 1-5.54-2.12l-9.19 15.01A39.6 39.6 0 0 0 50.93 80l3.23-17.33M52.5 18.73c1.8-.58 3.71-.93 5.7-1.02V.07c-4.2.1-8.24.88-12.03 2.2l6.32 16.46M40.58 53.2a22.75 22.75 0 0 1-2.66-5.38l-16.8 4.87a40.4 40.4 0 0 0 5.55 11.19l13.9-10.67M45.3 22.6a22.56 22.56 0 0 1 4.83-2.97L43.82 3.2a39.94 39.94 0 0 0-10.3 6.37L45.3 22.59M5.5 114.42H2.38v3.51h-.65v-7.34h4.11v.62H2.38v2.59H5.5v.62M8.71 113.55c-1.28 0-1.36.83-1.36 1.93s.08 1.94 1.36 1.94c1.26 0 1.36-.83 1.36-1.94 0-1.1-.1-1.93-1.36-1.93zm0 4.48c-1.66 0-2.03-1.05-2.03-2.55 0-1.5.37-2.54 2.03-2.54 1.67 0 2.03 1.05 2.03 2.54 0 1.5-.36 2.55-2.03 2.55zM14.57 113.63a1.81 1.81 0 0 0-.58-.08c-.66 0-1.05.1-1.4.3v4.08h-.69v-4.9h.38l.15.42c.45-.34 1.02-.51 1.56-.51.22 0 .4.02.58.05v.64M17.63 112.55c0 1.04.6 1.14 1.74 1.29 1.43.19 2.3.54 2.3 1.97 0 1-.51 2.22-2.68 2.22-.66 0-1.57-.19-2.03-.4V117c.46.16 1.04.4 2.05.4 1.5 0 1.96-.7 1.96-1.59 0-1.04-.43-1.25-1.64-1.4-1.71-.22-2.37-.62-2.37-1.87 0-.85.4-2.05 2.44-2.05.9 0 1.5.16 1.9.35v.65a4.37 4.37 0 0 0-1.9-.38c-1.44 0-1.77.67-1.77 1.44M23.46 116.59c0 .63.37.83.97.83.63 0 .95-.1 1.3-.31v-4.07h.68v4.89h-.37l-.15-.41c-.46.34-.95.5-1.46.5-1.16 0-1.65-.52-1.65-1.46v-3.52h.68v3.55M29.29 115.12c1.38.13 1.7.6 1.7 1.4 0 .75-.47 1.5-1.94 1.5-.47 0-1.14-.11-1.45-.24v-.59c.3.11.77.23 1.46.23 1 0 1.28-.43 1.28-.9 0-.44-.14-.75-1.1-.83-1.4-.13-1.7-.63-1.7-1.3 0-.7.45-1.45 1.82-1.45.45 0 .97.06 1.4.24v.6a3.95 3.95 0 0 0-1.41-.23c-.96 0-1.17.36-1.17.84 0 .43.18.65 1.11.73M34.65 117.99c-.12.03-.31.04-.44.04-.8 0-1.55-.38-1.55-1.33v-3.13h-.97v-.3l.97-.28v-1.32l.68-.2v1.57h1.5v.53h-1.5v3.05c0 .6.32.84.93.84l.38-.02v.55M37.29 115.45c-.69.07-.99.43-.99 1 0 .44.1.97 1.03.97.52 0 .87-.15 1.29-.4v-1.7l-1.33.13zm.17-1.9c-.64 0-1.07.11-1.45.24v-.59c.43-.18.99-.26 1.45-.26 1.46 0 1.83.66 1.83 1.64v3.35h-.37l-.15-.4c-.43.33-.98.5-1.46.5-1.27 0-1.7-.76-1.7-1.58 0-.83.46-1.45 1.73-1.52l1.28-.08v-.28c0-.71-.26-1.02-1.16-1.02zM40.7 116.95v-3.91h.67v3.99c0 .34.1.44.4.44v.56c-.7 0-1.06-.3-1.06-1.08zm.34-5.87c.27 0 .48.22.48.49s-.21.49-.48.49a.48.48 0 0 1-.49-.49c0-.27.22-.49.49-.49zM45.83 114.38c0-.64-.37-.83-.97-.83-.63 0-.95.1-1.3.3v4.08h-.68v-4.9h.38l.14.42c.46-.34.95-.51 1.46-.51 1.16 0 1.65.53 1.65 1.47v3.52h-.68v-3.55M49.25 115.45c-.69.07-.99.43-.99 1 0 .44.11.97 1.03.97.52 0 .87-.15 1.29-.4v-1.7l-1.33.13zm.17-1.9c-.64 0-1.07.11-1.45.24v-.59c.43-.18 1-.26 1.45-.26 1.46 0 1.84.66 1.84 1.64v3.35h-.38l-.15-.4c-.43.33-.98.5-1.46.5-1.27 0-1.7-.76-1.7-1.58 0-.83.46-1.45 1.73-1.52l1.28-.08v-.28c0-.71-.25-1.02-1.16-1.02zM53.2 113.86v3.25c.37.2.72.31 1.35.31 1.16 0 1.3-.97 1.3-1.94s-.14-1.93-1.3-1.93c-.63 0-.98.1-1.36.3zm3.33 1.62c0 1.41-.42 2.55-1.98 2.55-.52 0-1-.18-1.51-.5l-.15.4h-.38v-7.34h.68v2.75c.42-.27.91-.4 1.36-.4 1.56 0 1.98 1.13 1.98 2.54zM57.85 116.95v-6.36h.66v6.44c0 .34.1.44.4.44v.56c-.7 0-1.06-.3-1.06-1.08M60.6 115.24h2.52c0-.87-.05-1.7-1.16-1.7-1.13 0-1.33.82-1.36 1.7zm1.36-2.3c1.64 0 1.84 1.13 1.84 2.54v.32h-3.2c.04.85.26 1.62 1.36 1.62.7 0 1.12-.07 1.6-.27v.58c-.55.25-1.13.3-1.6.3-1.64 0-2.04-1.14-2.04-2.55 0-1.4.4-2.54 2.04-2.54zM67.36 117.31h1.36c1.74 0 2.32-1.29 2.32-3.05 0-1.76-.58-3.05-2.32-3.05h-1.36v6.1zm-.66.62v-7.34h1.98c2.37 0 3.06 1.59 3.06 3.67s-.69 3.67-3.06 3.67H66.7zM73.53 115.24h2.52c0-.87-.05-1.7-1.16-1.7-1.13 0-1.33.82-1.36 1.7zm1.36-2.3c1.64 0 1.84 1.13 1.84 2.54v.32h-3.2c.04.85.26 1.62 1.36 1.62.7 0 1.12-.07 1.6-.27v.58a3.9 3.9 0 0 1-1.6.3c-1.64 0-2.04-1.14-2.04-2.55 0-1.4.4-2.54 2.04-2.54zM78.1 113.04l1.39 4.01 1.38-4.01h.75l-1.89 4.99h-.48l-1.89-4.99h.74M82.83 115.24h2.52c0-.87-.05-1.7-1.17-1.7-1.12 0-1.32.82-1.35 1.7zm1.35-2.3c1.65 0 1.84 1.13 1.84 2.54v.32h-3.2c.05.85.27 1.62 1.36 1.62.7 0 1.13-.07 1.6-.27v.58a3.9 3.9 0 0 1-1.6.3c-1.63 0-2.03-1.14-2.03-2.55 0-1.4.4-2.54 2.03-2.54zM87.34 116.95v-6.36H88v6.44c0 .34.1.44.4.44v.56c-.69 0-1.06-.3-1.06-1.08"/><g transform="translate(89.2 112.87)"><mask id="d" fill="#fff"><use xlink:href="#c"/></mask><path fill="#FFFFFE" d="M2.24.68C.97.68.9 1.51.9 2.62c0 1.1.08 1.93 1.35 1.93 1.26 0 1.36-.83 1.36-1.93S3.5.68 2.24.68zm0 4.48C.6 5.16.21 4.11.21 2.62.21 1.12.6.07 2.24.07c1.67 0 2.04 1.05 2.04 2.55 0 1.5-.37 2.54-2.04 2.54zM8.78 2.62c0-.97-.14-1.94-1.3-1.94-.64 0-.98.1-1.36.31v3.25c.38.2.72.31 1.35.31 1.17 0 1.31-.97 1.31-1.93zM6.12 4.76V7.5h-.68V.17h.38l.14.4c.5-.32 1-.5 1.51-.5 1.56 0 1.99 1.14 1.99 2.55 0 1.4-.43 2.54-1.99 2.54-.44 0-.94-.13-1.35-.4z" mask="url(#d)"/></g><path fill="#FFFFFE" d="M105.54 114.38c0-.64-.37-.83-.92-.83-.6 0-.93.11-1.32.32.04.16.06.32.06.5v3.56h-.68v-3.55c0-.64-.37-.83-.92-.83-.56 0-.88.1-1.26.29v4.09h-.67v-4.9h.37l.15.4c.46-.33.97-.5 1.41-.5.65 0 1.1.2 1.36.57a2.7 2.7 0 0 1 1.5-.56c1.04 0 1.6.49 1.6 1.47v3.52h-.68v-3.55M108 115.24h2.53c0-.87-.05-1.7-1.16-1.7-1.13 0-1.33.82-1.36 1.7zm1.37-2.3c1.64 0 1.84 1.13 1.84 2.54v.32H108c.04.85.26 1.62 1.36 1.62.7 0 1.12-.07 1.6-.27v.58a3.9 3.9 0 0 1-1.6.3c-1.64 0-2.04-1.14-2.04-2.55 0-1.4.4-2.54 2.04-2.54zM115.32 114.38c0-.64-.37-.83-.97-.83-.63 0-.95.1-1.3.3v4.08h-.68v-4.9h.38l.14.42c.46-.34.95-.51 1.46-.51 1.16 0 1.65.53 1.65 1.47v3.52h-.68v-3.55M119.73 117.99c-.12.03-.31.04-.44.04-.8 0-1.55-.38-1.55-1.33v-3.13h-.97v-.3l.97-.28v-1.32l.68-.2v1.57h1.5v.53h-1.5v3.05c0 .6.32.84.93.84l.38-.02v.55"/></g></svg>
