<svg xmlns="http://www.w3.org/2000/svg" viewBox="0 0 188 188">
  <g fill="none" fill-rule="evenodd">
    <path fill="#FD9D24" d="M0 0h188v188H0z" />
    <path fill="#FFF" d="M42.8 134.3h22.95c.3 0 .56-.25.56-.56a.57.57 0 0 0-.15-.38l-.03-.03-11.42-14.85-.1-.12a.56.56 0 0 0-.42-.18.57.57 0 0 0-.37.14l-.07.08-.11.12-11.14 14.69-.17.21a.57.57 0 0 0 .47.88m22.88 2.1h-23a.56.56 0 0 0-.56.56v18.08c0 .32.25.57.56.57h7.4v-11.38c0-.3.25-.56.57-.56h6.87c.3 0 .56.25.56.56v11.38h7.6c.3 0 .56-.25.56-.57v-18.08a.56.56 0 0 0-.56-.56m77.42 2.66c0 .3-.25.55-.56.55h-6.8a.55.55 0 0 1-.55-.55v-4.15c0-.3.24-.54.55-.54h6.8c.31 0 .56.24.56.54v4.15zm0 7.68c0 .3-.25.55-.56.55h-6.8a.55.55 0 0 1-.55-.55v-4.15c0-.3.24-.55.55-.55h6.8c.31 0 .56.24.56.55v4.15zm-10.4-7.68c0 .3-.24.55-.55.55h-6.8a.55.55 0 0 1-.56-.55v-4.15c0-.3.25-.54.56-.54h6.8c.3 0 .56.24.56.54v4.15zm0 7.68c0 .3-.24.55-.55.55h-6.8a.55.55 0 0 1-.56-.55v-4.15c0-.3.25-.55.56-.55h6.8c.3 0 .56.24.56.55v4.15zm12.46-15.08H122.4c-.3 0-.56.24-.56.55v23.09c0 .3.25.54.56.54h22.76c.3 0 .56-.24.56-.54v-23.1c0-.3-.25-.54-.56-.54zM89 94.47a.3.3 0 0 1-.3.3h-5.1a.3.3 0 0 1-.29-.3v-5.71c0-.16.13-.3.3-.3h5.1a.3.3 0 0 1 .29.3v5.71zm0 13.11a.3.3 0 0 1-.3.3h-5.1a.3.3 0 0 1-.29-.3v-5.7c0-.17.13-.3.3-.3h5.1a.3.3 0 0 1 .29.3v5.7zm0 13.12a.3.3 0 0 1-.3.3h-5.1a.3.3 0 0 1-.29-.3v-5.71c0-.16.13-.3.3-.3h5.1a.3.3 0 0 1 .29.3v5.71zm0 13.11a.3.3 0 0 1-.3.3h-5.1a.3.3 0 0 1-.29-.3v-5.7c0-.17.13-.3.3-.3h5.1a.3.3 0 0 1 .29.3v5.7zm0 13.12a.3.3 0 0 1-.3.3h-5.1a.3.3 0 0 1-.29-.3v-5.71c0-.16.13-.3.3-.3h5.1a.3.3 0 0 1 .29.3v5.7zM79 94.47a.3.3 0 0 1-.3.3h-5.1a.3.3 0 0 1-.29-.3v-5.71c0-.16.13-.3.3-.3h5.1a.3.3 0 0 1 .29.3v5.71zm0 13.11a.3.3 0 0 1-.3.3h-5.1a.3.3 0 0 1-.29-.3v-5.7c0-.17.13-.3.3-.3h5.1a.3.3 0 0 1 .29.3v5.7zm0 13.12a.3.3 0 0 1-.3.3h-5.1a.3.3 0 0 1-.29-.3v-5.71c0-.16.13-.3.3-.3h5.1a.3.3 0 0 1 .29.3v5.71zm0 13.11a.3.3 0 0 1-.3.3h-5.1a.3.3 0 0 1-.29-.3v-5.7c0-.17.13-.3.3-.3h5.1a.3.3 0 0 1 .29.3v5.7zm0 13.12a.3.3 0 0 1-.3.3h-5.1a.3.3 0 0 1-.29-.3v-5.71c0-.16.13-.3.3-.3h5.1a.3.3 0 0 1 .29.3v5.7zm13.25-68.87H69.97c-.3 0-.54.24-.54.55v76.48c0 .3.25.55.54.55h22.28c.3 0 .55-.24.55-.55V78.61c0-.3-.25-.55-.55-.55zm53.45 51.28c0 .26-.21.46-.47.46h-22.9a.46.46 0 0 1-.46-.46v-4.6c0-.26.2-.46.45-.46h22.91c.26 0 .46.2.46.46v4.6m-29.07-13.47c0 .3-.24.55-.54.55h-6.64a.55.55 0 0 1-.55-.55v-4.17c0-.3.25-.55.55-.55h6.64c.3 0 .54.24.54.55v4.17zm0 7.72c0 .3-.24.54-.54.54h-6.64a.55.55 0 0 1-.55-.54v-4.18c0-.3.25-.54.55-.54h6.64c.3 0 .54.24.54.54v4.18zm0 7.72c0 .3-.24.54-.54.54h-6.64a.55.55 0 0 1-.55-.54v-4.18c0-.3.25-.55.55-.55h6.64c.3 0 .54.25.54.55v4.18zm0 7.71c0 .3-.24.55-.54.55h-6.64a.55.55 0 0 1-.55-.55v-4.18c0-.3.25-.54.55-.54h6.64c.3 0 .54.24.54.54v4.18zm0 7.71c0 .3-.24.55-.54.55h-6.64a.55.55 0 0 1-.55-.55v-4.17c0-.3.25-.55.55-.55h6.64c.3 0 .54.25.54.55v4.17zM106.5 114.4v9.2c0 .3-.24.54-.54.54H99.3a.55.55 0 0 1-.55-.54v-1.16c0-.07.02-.14.04-.2l.04-.07.05-.07.06-.09a274.3 274.3 0 0 1 6.28-7.94l.16-.2c.12-.14.3-.23.5-.23.3 0 .54.22.6.51v.25zm-.02 16.9c0 .3-.24.55-.54.55H99.3a.54.54 0 0 1-.54-.54v-4.18c0-.3.24-.55.54-.55h6.64c.3 0 .54.25.54.55v4.18zm0 7.72c0 .3-.24.55-.54.55H99.3a.54.54 0 0 1-.54-.55v-4.18c0-.3.24-.54.54-.54h6.64c.3 0 .54.24.54.54v4.18zm0 7.71c0 .3-.24.55-.54.55H99.3a.54.54 0 0 1-.54-.55v-4.17c0-.3.24-.55.54-.55h6.64c.3 0 .54.25.54.55v4.17zm3.47-39.07l.15-.2c1.5-1.93 4.03-5.05 5.26-6.57l.16-.2a.63.63 0 0 1 1.1.28v7.06c0 .35-.27.62-.6.63h-5.59a.63.63 0 0 1-.48-1zm9.21-15.16a.59.59 0 0 0-.56-.42.57.57 0 0 0-.31.1l-.05.03-.18.24-21.9 27.9-.1.14a.63.63 0 0 0-.19.43v34.29c0 .3.25.54.55.54h22.25c.3 0 .55-.24.55-.54V92.73a.55.55 0 0 0-.06-.23zM21.43 15.03h4.66v34.71h-5.83V23.17h-.05l-4.1 4.25h-.05v-6.1l5.37-6.3zm12.6 0h4.66v34.71h-5.84V23.17h-.05l-4.1 4.25h-.05v-6.1l5.38-6.3zm21.24 14.48c-2.44 0-3.39-1.36-3.39-3.23v-1.91h2.23v1.95c0 .8.36 1.26 1.18 1.26.75 0 1.09-.5 1.09-1.26v-.55c0-.82-.34-1.32-1.07-2.01l-1.4-1.41c-1.37-1.34-2-2.16-2-3.8v-.48c0-1.77 1.02-3.13 3.36-3.13 2.39 0 3.33 1.17 3.33 3.23v1.16h-2.18v-1.24c0-.82-.38-1.22-1.13-1.22-.68 0-1.14.38-1.14 1.17v.3c0 .8.44 1.26 1.14 1.93l1.53 1.51c1.3 1.33 1.93 2.12 1.93 3.7v.7c0 1.94-1.05 3.33-3.48 3.33zm9.17-14.4h2.2v10.77c0 2.2-.94 3.63-3.37 3.63-2.52 0-3.57-1.43-3.57-3.63V15.1h2.4v11c0 .85.33 1.42 1.17 1.42.84 0 1.17-.57 1.17-1.41v-11zm6.51 14.4c-2.43 0-3.38-1.36-3.38-3.23v-1.91h2.23v1.95c0 .8.35 1.26 1.17 1.26.76 0 1.1-.5 1.1-1.26v-.55c0-.82-.34-1.32-1.08-2.01l-1.4-1.41c-1.37-1.34-2-2.16-2-3.8v-.48c0-1.77 1.03-3.13 3.36-3.13 2.4 0 3.34 1.17 3.34 3.23v1.16h-2.18v-1.24c0-.82-.38-1.22-1.14-1.22-.67 0-1.13.38-1.13 1.17v.3c0 .8.44 1.26 1.13 1.93l1.54 1.51c1.3 1.33 1.93 2.12 1.93 3.7v.7c0 1.94-1.05 3.33-3.49 3.33zm3.85-12.45V15.1h6.36v1.96h-1.98v12.28h-2.41V17.06H74.8zm8 12.28h-2.27l2.69-14.24h2.73l2.7 14.24H86.2l-.44-2.6h-2.54l-.42 2.6zm1.68-10.22l-.95 5.7h1.91l-.94-5.7h-.02zm4.85 10.22V15.1h2.4v14.24h-2.4zm8.3 0L94.8 20.4v8.94h-2.02V15.1h2.35l2.59 8.17V15.1h2v14.24h-2.1zm5.03 0h-2.27l2.7-14.24h2.72l2.71 14.24h-2.46l-.44-2.6h-2.54l-.42 2.6zm1.68-10.22l-.94 5.7h1.9l-.94-5.7h-.02zm4.85 10.22V15.1h3.47c2.4 0 3.2 1.12 3.2 3.13v1.45c0 1.2-.45 1.96-1.44 2.27 1.2.27 1.79 1.07 1.79 2.37v1.9c0 2.01-.9 3.12-3.3 3.12h-3.72zm3.43-6.4h-1.03v4.45h1.05c.8 0 1.17-.4 1.17-1.16V24.1c0-.75-.35-1.15-1.2-1.15zm-1.03-5.88v4.05h.84c.77 0 1.13-.4 1.13-1.15V18.2c0-.77-.36-1.15-1.15-1.15h-.82zm5.5 12.28V15.1h2.4v12.3h2.85v1.95h-5.25zm6.03 0V15.1h5.7v1.96h-3.3v4.07h2.36v1.93h-2.37v4.33h3.32v1.95h-5.71zm12.13.17c-2.52 0-3.57-1.64-3.57-3.84v-6.89c0-2.23 1.05-3.84 3.57-3.84 2.65 0 3.39 1.47 3.39 3.57v1.68h-2.19v-1.87c0-.88-.3-1.39-1.15-1.39-.86 0-1.22.61-1.22 1.47v7.65c0 .86.36 1.47 1.22 1.47s1.15-.55 1.15-1.39V23.5h2.19v2.46c0 2.04-.84 3.55-3.39 3.55zm4.37-.17V15.1h2.4v14.24h-2.4zm3.2-12.28V15.1h6.36v1.96h-1.98v12.28h-2.41V17.06h-1.98zm7.16 12.28V15.1h2.39v14.24h-2.4zm3.46 0V15.1h5.71v1.96h-3.32v4.07h2.38v1.93h-2.38v4.33h3.32v1.95h-5.7zm9.83.17c-2.44 0-3.38-1.36-3.38-3.23v-1.91h2.22v1.95c0 .8.36 1.26 1.18 1.26.76 0 1.1-.5 1.1-1.26v-.55c0-.82-.34-1.32-1.08-2.01l-1.4-1.41c-1.37-1.34-2-2.16-2-3.8v-.48c0-1.77 1.03-3.13 3.36-3.13 2.4 0 3.34 1.17 3.34 3.23v1.16h-2.19v-1.24c0-.82-.37-1.22-1.13-1.22-.67 0-1.13.38-1.13 1.17v.3c0 .8.44 1.26 1.13 1.93l1.53 1.51c1.3 1.33 1.93 2.12 1.93 3.7v.7c0 1.94-1.05 3.33-3.48 3.33zM53.9 49.55h-2.27l2.7-14.24h2.72l2.71 14.24H57.3l-.44-2.6h-2.54l-.42 2.6zm1.68-10.22l-.94 5.7h1.9l-.94-5.7h-.02zm9.68 10.22l-2.81-8.94v8.94h-2.02V35.31h2.35l2.59 8.17v-8.17h2v14.24h-2.1zm5.55-1.95h1c1 0 1.37-.59 1.37-1.45V38.7c0-.84-.38-1.43-1.37-1.43h-1V47.6zm1.3-12.29c2.56 0 3.46 1.62 3.46 3.83v6.6c0 2.17-.9 3.81-3.46 3.81h-3.7V35.31h3.7zm9.97 14.41c-2.52 0-3.57-1.64-3.57-3.84v-6.89c0-2.23 1.05-3.84 3.57-3.84 2.65 0 3.38 1.47 3.38 3.57v1.68h-2.18v-1.87c0-.88-.3-1.39-1.16-1.39-.86 0-1.21.61-1.21 1.47v7.65c0 .86.35 1.47 1.21 1.47.87 0 1.16-.55 1.16-1.39v-2.63h2.18v2.46c0 2.04-.84 3.55-3.38 3.55zm7.98-2c.86 0 1.24-.6 1.24-1.46V38.6c0-.86-.38-1.47-1.24-1.47-.84 0-1.22.61-1.22 1.47v7.65c0 .86.38 1.47 1.22 1.47zm0 2c-2.52 0-3.6-1.64-3.6-3.84v-6.89c0-2.23 1.08-3.84 3.6-3.84 2.54 0 3.64 1.61 3.64 3.84v6.89c0 2.2-1.1 3.84-3.64 3.84zm11.28-.17v-9.24h-.06l-1.62 9.24h-1.11l-1.79-9.24h-.04v9.24h-1.97V35.31h2.79l1.55 8.03h.02l1.39-8.03h3.02v14.24h-2.18zm9.83 0v-9.24h-.07l-1.61 9.24h-1.12l-1.78-9.24h-.04v9.24h-1.98V35.31h2.8l1.55 8.03h.02l1.39-8.03h3.02v14.24h-2.18zm7.98-14.24h2.2V46.1c0 2.2-.94 3.63-3.38 3.63-2.52 0-3.57-1.43-3.57-3.63V35.3h2.4v11c0 .85.33 1.42 1.17 1.42.84 0 1.18-.57 1.18-1.41v-11zm8.08 14.24l-2.81-8.94v8.94h-2.02V35.31h2.35l2.59 8.17v-8.17h2v14.24h-2.1zm3.15 0V35.31h2.4v14.24h-2.4zm3.2-12.28V35.3h6.36v1.96h-1.98v12.28h-2.41V37.27h-1.98zm7.16 12.28V35.31h2.39v14.24h-2.4zm3.46 0V35.31h5.71v1.96h-3.32v4.07h2.38v1.93h-2.38v4.33h3.32v1.95h-5.7zm9.83.17c-2.44 0-3.38-1.36-3.38-3.23v-1.91h2.22v1.95c0 .8.36 1.26 1.18 1.26.76 0 1.1-.5 1.1-1.26v-.55c0-.82-.34-1.32-1.08-2.01l-1.4-1.41c-1.37-1.34-2-2.16-2-3.8v-.48c0-1.77 1.03-3.13 3.36-3.13 2.4 0 3.34 1.17 3.34 3.23v1.16h-2.19V38.3c0-.82-.37-1.22-1.13-1.22-.67 0-1.13.38-1.13 1.17v.3c0 .8.44 1.26 1.13 1.93l1.53 1.51c1.3 1.33 1.93 2.12 1.93 3.7v.7c0 1.94-1.05 3.33-3.48 3.33z"
    />
  </g>
</svg>
