<svg xmlns="http://www.w3.org/2000/svg" viewBox="0 0 188 188" width="188" height="188">
  <g fill="none" fill-rule="evenodd">
    <path fill="#56C02B" d="M0 0h188v188H0z" />
    <path fill="#FFF" d="M81.62 122.81c.19 0 .34.16.34.35v11.43c0 .2-.15.35-.34.35h-4.6a.34.34 0 0 1-.34-.35v-11.43c0-.2.15-.35.34-.35h4.6m50.48 17.04H56.35a.36.36 0 0 0-.35.36v4.66c0 .19.16.34.35.34h75.75c.19 0 .35-.15.35-.34v-4.66c0-.2-.16-.36-.35-.36m0 9.26H56.35a.35.35 0 0 0-.35.35v4.67c0 .19.16.35.35.35h75.75c.19 0 .35-.16.35-.35v-4.67a.35.35 0 0 0-.35-.35m-14.42-38.95c-.94-.75-3.47-2.49-6.55-2.49a8.7 8.7 0 0 0-6.08 2.6c-.13.13-.2.3-.2.48v.42c0 .2.06.4.21.52a.6.6 0 0 0 .54.12 1.02 1.02 0 0 0 .52-.28 6.2 6.2 0 0 1 3.03-.63c1.6 0 4.76.43 7.8 3.3l.08.05a.91.91 0 0 0 1.3.01l.06-.06a11.45 11.45 0 0 1 7.81-3.3 6.1 6.1 0 0 1 3.05.63c.1.11.24.2.41.26.07.02.26.06.45.02a.65.65 0 0 0 .48-.63v-.37a.66.66 0 0 0-.2-.47 8.75 8.75 0 0 0-6.16-2.67c-3.06 0-5.57 1.71-6.55 2.49m-4.7-30.39a.63.63 0 0 0-.33.4l-.07.25c-.06.2-.02.41.1.57a.6.6 0 0 0 .46.26h.1a.8.8 0 0 0 .37-.09c.06-.01.2-.05.45-.05.34 0 3.4.1 5.42 3.56l.02.05c.11.2.28.33.49.39a.78.78 0 0 0 .62-.06l.05-.02a7.5 7.5 0 0 1 3.38-.85c1.91 0 3.16.79 3.45 1.12.06.1.16.2.26.28l.24.12.12.02h.06a.65.65 0 0 0 .63-.47l.06-.22a.6.6 0 0 0 .03-.19.62.62 0 0 0-.1-.32 5.69 5.69 0 0 0-5.13-3.11c-1.14 0-2.14.3-2.73.51-.7-.94-2.44-2.88-5.1-2.88-.94 0-1.9.24-2.85.73m-16 11.73l.02.34c0 .21.12.4.3.51.15.1.34.13.51.08.04 0 .08-.02.11-.03a.83.83 0 0 0 .33-.25 5.52 5.52 0 0 1 2.89-.66c1.47 0 3.7.4 5.99 2.28l.05.06a.9.9 0 0 0 .59.22h.05a.88.88 0 0 0 .6-.29l.05-.06a9.07 9.07 0 0 1 6.64-3.09c1 0 1.7.21 1.97.37a.94.94 0 0 0 .67.22c.05 0 .11-.02.16-.04.27-.1.45-.36.43-.65l-.01-.3a.65.65 0 0 0-.23-.45 7.4 7.4 0 0 0-4.85-1.92c-2.66 0-4.79 1.58-5.67 2.36a9.42 9.42 0 0 0-5.05-1.7 7.2 7.2 0 0 0-5.38 2.5.68.68 0 0 0-.17.5m-38.34 6.12a8.24 8.24 0 0 1 8.21-8.27c.18 0 .36.02.53.03a11.14 11.14 0 0 1 11.07-10.34 11.15 11.15 0 0 1 9.99 16.06 12.48 12.48 0 0 1 9.72 12.2c0 6.9-5.56 12.5-12.41 12.5l-16.58-.1a8.82 8.82 0 0 1-8.79-8.85c0-2.35.92-4.48 2.4-6.06a8.27 8.27 0 0 1-4.14-7.17M17.83 14.98h4.67v34.77h-5.85V23.13h-.05l-4.1 4.26h-.05v-6.1l5.38-6.31zM36.4 26c3.12 0 5.95 2.2 5.95 7.7v8.5c0 4.83-2.41 7.96-8.31 7.96-5.95 0-8.05-3.39-8.05-8.67v-3.95h5.33v4.36c0 2.05.72 3.39 2.72 3.39 1.8 0 2.46-1.29 2.46-3.13v-8.41c0-1.9-.72-3.13-2.51-3.13-1.64 0-2.57 1.13-2.57 3.18v.77H26.1v-19.6h15.38v4.78H31.42v8.66h.05c.93-1.59 2.62-2.4 4.93-2.4zm17.72 3.81v-14.9h2.5v12.86h3v2.04h-5.5zm6.3 0v-14.9h2.51v14.9h-2.5zm3.63 0v-14.9h5.87v2.04h-3.36v4.27h2.5v2.02h-2.5v6.57h-2.5zm6.64 0v-14.9h5.98v2.04H73.2v4.27h2.48v2.02H73.2v4.53h3.47v2.04h-5.98zM57.9 48c.9 0 1.3-.64 1.3-1.54v-8c0-.9-.4-1.54-1.3-1.54-.88 0-1.27.64-1.27 1.54v8c0 .9.4 1.54 1.27 1.54zm0 2.09c-2.64 0-3.78-1.72-3.78-4.03v-7.2c0-2.33 1.14-4.03 3.78-4.03 2.66 0 3.8 1.7 3.8 4.02v7.21c0 2.31-1.14 4.03-3.8 4.03zm9.96-.18l-2.95-9.36v9.36h-2.1v-14.9h2.45l2.7 8.55V35h2.1v14.9h-2.2zm5.27 0v-14.9h2.5v12.86h3v2.04h-5.5zm8.29 0h-2.38l2.82-14.9h2.85l2.84 14.9h-2.57l-.46-2.73h-2.66l-.44 2.73zm1.76-10.7l-1 5.97h2l-.98-5.97h-.02zM93.3 49.9l-2.95-9.36v9.36h-2.1V35h2.45l2.7 8.55V35h2.1v14.9h-2.2zm5.8-2.04h1.05c1.04 0 1.43-.62 1.43-1.52v-7.8c0-.88-.4-1.5-1.43-1.5H99.1v10.82zM100.47 35c2.68 0 3.63 1.7 3.63 4v6.9c0 2.29-.95 4-3.63 4H96.6V35h3.87z"
    />
  </g>
</svg>
