<svg xmlns="http://www.w3.org/2000/svg" viewBox="0 0 1000 1000">
  <path fill="#19486a" d="M0 0h1000v1000H0z"/>
  <path d="M319.1 83.7h20.4c13.9 0 19 6.9 19 18.3v17.3c0 11.4-5.1 18.4-19 18.4h-6.6v27.8H319zM333 94.9V127h5c4.7 0 6.8-2.3 6.8-6.8v-18.8c0-4.4-2-6.6-6.8-6.6zm27.1 70.6l15.4-81.8h15.7l15.5 81.8h-14l-2.6-15h-14.6l-2.4 15zm17.3-26h11l-5.5-32.8h-.1zm50-11.5v37.5h-13.8V83.7h20c13.9 0 19 6.9 19 18.3v10.5c0 8.8-3.2 14-11 15.8l13.1 37.2h-14.4zm0-33v25.4h4.6c4.7 0 6.8-2.4 6.8-6.8v-12c0-4.5-2-6.7-6.8-6.7zm30.1-11.3H494v11.2h-11.4v70.6h-13.8V94.9h-11.3V83.7zm56.8 30.3v51.5h-11.6V83.7h13.5l14.8 46.9v-47h11.5v81.9h-12L514.2 114zm39.5-30.3h32.7v11.2h-19v23.4h13.6v11.1h-13.6v24.8h19v11.3h-32.7V83.7zm55.1 44.3v37.5H595V83.7h20c13.9 0 19 6.9 19 18.3v10.5c0 8.8-3.2 14-11 15.8l13 37.2h-14.4zm0-33v25.4h4.5c4.7 0 6.8-2.4 6.8-6.8v-12c0-4.5-2-6.7-6.8-6.7zm32 52.8v-11h12.8V148c0 4.6 2 7.3 6.7 7.3 4.4 0 6.3-3 6.3-7.2V145c0-4.7-2-7.6-6.2-11.6l-8-8c-7.9-7.8-11.5-12.5-11.5-21.9v-2.8c0-10.1 6-18 19.3-18 13.7 0 19.2 6.8 19.2 18.6v6.6h-12.6v-7c0-4.8-2.1-7-6.5-7-3.8 0-6.5 2.1-6.5 6.7v1.7c0 4.6 2.6 7.2 6.5 11l8.8 8.7c7.5 7.6 11.1 12.2 11.1 21.3v4c0 11.2-6 19.1-20 19.1s-19.4-7.8-19.4-18.5m74.9-18.5h-13.3v36h-13.7V83.8h13.7v34.6h13.3V83.7h13.8v81.8h-13.8v-36.1zm22.9-45.7h13.7v81.8h-13.7zm22.9 0H782c13.9 0 19 6.9 19 18.3v17.3c0 11.4-5.1 18.4-19 18.4h-6.6v27.8h-13.8zm13.7 11.2V127h5c4.7 0 6.8-2.3 6.8-6.8v-18.8c0-4.4-2-6.6-6.8-6.6zm31 52.9v-11H819V148c0 4.6 2 7.3 6.8 7.3 4.3 0 6.2-3 6.2-7.2V145c0-4.7-2-7.6-6.1-11.6l-8.1-8c-7.8-7.8-11.4-12.5-11.4-21.9v-2.8c0-10.1 5.9-18 19.2-18 13.8 0 19.2 6.8 19.2 18.6v6.6h-12.5v-7c0-4.8-2.2-7-6.5-7-3.9 0-6.5 2.1-6.5 6.7v1.7c0 4.6 2.5 7.2 6.5 11l8.8 8.7c7.4 7.6 11 12.2 11 21.3v4c0 11.2-6 19.1-20 19.1s-19.3-7.8-19.3-18.5M149.6 83.8v201.6h-33.9V131.1h-.3l-23.8 24.7h-.3v-35.4l31.3-36.6h27zm15.5 0h85V115l-44.3 170.4h-33.6l45.2-174h-52.3V83.9zm154 118.7h32.7v11.3h-18.7v23.8h14v11.3h-14v36.6h-14v-83zm37.6 61.5v-40.1c0-13 6.4-22.4 21-22.4s21.3 9.4 21.3 22.4V264c0 12.8-6.4 22.4-21.2 22.4s-21-9.6-21-22.4m28.3 2.2v-44.5c0-5-2.2-8.6-7.2-8.6s-7.1 3.6-7.1 8.6v44.5c0 5 2.2 8.6 7 8.6s7.3-3.5 7.3-8.6m36.9-18.8v38h-14v-83h20.3c14.1 0 19.2 7 19.2 18.7v10.6c0 9-3.1 14.2-11 16l13.2 37.7h-14.6zm0-33.6v25.9h4.7c4.7 0 6.8-2.5 6.8-6.9v-12.2c0-4.6-2-6.8-6.9-6.8zm47.6-11.3h37.1v11.3h-11.5v71.7h-14v-71.7h-11.6v-11.3zm71 46.3h-13.4v36.7h-14v-83h14v35.1h13.4v-35.1h14.1v83h-14v-36.7zm23.2-46.3H597v11.3h-19.4v23.8h13.9v11.3h-13.9V274H597v11.4h-33.3v-83zm77.9 38.6h19.8v44.4h-10v-9.1c-1.8 6.3-5.7 10-13.3 10-12 0-17.5-9.6-17.5-22.4v-40.1c0-13 6.2-22.4 20.9-22.4 15.4 0 20 8.5 20 20.8v7.3h-12.8v-8.4c0-5.1-2-8-7-8s-7.2 3.5-7.2 8.5v44.5c0 5 2 8.6 6.8 8.6 4.5 0 6.9-2.6 6.9-8v-14.6h-6.6zm27.8 22.9v-40.1c0-13 6.3-22.4 21-22.4s21.2 9.4 21.2 22.4V264c0 12.8-6.4 22.4-21.2 22.4s-21-9.6-21-22.4m28.3 2.2v-44.5c0-5-2.3-8.6-7.3-8.6s-7 3.6-7 8.6v44.5c0 5 2.1 8.6 7 8.6s7.2-3.5 7.2-8.6m17.9 19.3l15.7-83h16l15.7 83h-14.3l-2.6-15.2h-14.8l-2.4 15.2zm17.5-26.4h11.2l-5.5-33.3h-.2zm37.9-56.6h14V274h16.6v11.4H771v-83zm35.6 65.1v-11.2h13v11.4c0 4.7 2 7.4 6.8 7.4 4.5 0 6.4-3 6.4-7.4v-3.2c0-4.7-2-7.7-6.2-11.7l-8.2-8.2c-8-7.8-11.6-12.6-11.6-22.2v-2.8c0-10.3 6-18.2 19.5-18.2 14 0 19.5 6.8 19.5 18.8v6.8H833v-7.3c0-4.7-2.2-7-6.6-7-3.9 0-6.6 2.1-6.6 6.8v1.7c0 4.7 2.6 7.4 6.6 11.3l9 8.8c7.6 7.7 11.2 12.3 11.2 21.5v4c0 11.4-6 19.5-20.3 19.5s-19.7-8-19.7-18.9m-58.3 339c0-70.2-56-127.6-125.5-130.2a130.2 130.2 0 0 0-245.6 0 130.4 130.4 0 0 0-125.5 130.2A130 130 0 0 0 302 709a130.4 130.4 0 0 0-5.1 36.2c0 71.8 58.4 130.2 130.2 130.2a129.5 129.5 0 0 0 73.5-22.8 129.5 129.5 0 0 0 72.3 22c71.8 0 130.2-58.5 130.2-130.3a130 130 0 0 0-4.9-35.4 130 130 0 0 0 50-102.5M604 519.7a104 104 0 0 1-88.7 102.8 102.7 102.7 0 0 1-1.3-16 104 104 0 0 1 88.6-102.8 103.8 103.8 0 0 1 1.4 16M500.5 818.9a103.7 103.7 0 0 1-1-148.1 103.7 103.7 0 0 1 1 148.1M397.3 503.7A104 104 0 0 1 486 606.5a102.7 102.7 0 0 1-1.4 16c-50-7.5-88.6-50.7-88.6-102.8a104 104 0 0 1 1.4-16M474.9 653a103.6 103.6 0 0 1-140.7 45.8A103.6 103.6 0 0 1 475 653m49.9-.7A103.7 103.7 0 0 1 666 698.6a103.7 103.7 0 0 1-141.3-46.3M500 415.7a104.1 104.1 0 0 1 95.3 62.5 130.7 130.7 0 0 0-95.3 73.2 130.6 130.6 0 0 0-95.3-73.2 104.1 104.1 0 0 1 95.3-62.5M278 606.5A104.2 104.2 0 0 1 370.9 503a129.6 129.6 0 0 0 41.4 112.8 130.5 130.5 0 0 0-99.9 67.7 103.7 103.7 0 0 1-34.4-77.1m45 138.8a103.4 103.4 0 0 1 2.4-21.6 130 130 0 0 0 119.5-3.2A129.6 129.6 0 0 0 479.5 835 103.8 103.8 0 0 1 323 745.3m353.8-.9a103.8 103.8 0 0 1-155.3 90.4 129.7 129.7 0 0 0 33.3-114.4 130 130 0 0 0 119.9 3.2 103.4 103.4 0 0 1 2.1 20.8m-88.4-129.3a129.9 129.9 0 0 0 41.7-95.4 132.6 132.6 0 0 0-1-16.6 103.8 103.8 0 0 1 58.6 180.2 130.5 130.5 0 0 0-99.3-68.2" fill="#fff"/>
</svg>
