<svg xmlns="http://www.w3.org/2000/svg" viewBox="0 0 188 188" width="188" height="188">
  <g fill="none" fill-rule="evenodd">
    <path fill="#3F7E44" d="M0 0h188v188H0z" />
    <path fill="#FFF" d="M118.06 121.6c-.65-.17-3.37-3.86-1.22-6.28.36-.4-.72-1.58-.43-1.6 1.18-.09 1.8.63 2.11 1.66a23.5 23.5 0 0 1-.46 6.22m-6.63 11.98c-.24-.06-.5-.14-.76-.27-1.32-.66-1.17.4-1.81.16-.66-.24.73-1.71-1.22-.46-1.95 1.24-1.42-.2-2.27-2.3-.86-2.12.98-4.54 2.5-5.08 2.1-.75 3.41-.9 4.4-1.14 2.9-.71 3.52-2.4 4.05-1.37l.28.54c.17.31.37.94.37 1.55a23.72 23.72 0 0 1-5.54 8.37m-17.07 6.92a24.6 24.6 0 0 1-6.8-.96.97.97 0 0 1-.3-1.16c.75-1.92 2.98-2.67 4.74-2.83 3.93-.38 9.09 2.5 9.9 2.03.83-.46 2.49-2.58 4.92-2.49 1.66.07 1.65.34 2.2.55a24.4 24.4 0 0 1-14.66 4.86m-3.29-15.48c-.33.54-1.24 4.53-1.85 4.06-.62-.46.24-4.63.42-4.94.96-1.72 3.02-1.64 1.43.88m9.88-4.71c-.47.42-1.7.26-2.31-.2-.6-.47.39-1.24.75-1.27.81-.07 2.04 1.05 1.56 1.47m10.68.04c-.26-.1-.49-.34-.69-.92-.2-.58.3-.92.8-.68.5.25 1.14.97 1.14 1.36 0 .39-.98.34-1.25.24m1.03.73c.81-.07 2.04 1.04 1.56 1.47-.48.42-1.7.26-2.3-.2-.62-.47.38-1.24.74-1.27m-25.96 9.47c-.47 1.81-1.02 2.47-1.48 3.04a5.07 5.07 0 0 1-3.3 1.24c-1.1-.09-1.26-2.97-1.26-4.45 0-.51-.74 1-1.12-2.08-.25-1.97-1.54.2-1.63-1.1-.1-1.32-.74-1.06-1.42-1.88-.67-.82-1.51.08-2.46.5-.94.4-.55.62-1.89.2-.03 0-.05-.01-.08-.03a23.27 23.27 0 0 1-1.78-11.6c.04-.08.1-.16.15-.23 1.28-1.48 1.25-1.83 1.25-1.83l1.41-.48s2.27.34 3.97.97c1.4.52 3.61 1.68 4.9 1.17.92-.38 1.65-.87 1.56-1.63-.1-.95-.86-1.18-1.79-.54-.34.24-1.07-1.43-1.64-1.35-.57.08.7 1.96.22 2.04-.48.09-1.46-1.96-1.62-2.29-.17-.32-.92-1.14-1.6-.52-1.42 1.33-3.74 1.25-4.2 1.6-1.42 1.03-1.8-.35-1.76-1.2l.17-.57c.47-.5 2.13-.66 2.7-.3.62.42 1.07-.1 1.32-.35.24-.24.16-.63 0-.96-.16-.33.31-.57.64-.66.32-.08 1.4-.82 1.83-1.07.44-.24 2.67-.51 3.68-.02 1 .5 1.92.1 2.41-.48a6.45 6.45 0 0 1 1.76-1.43c.35-.16-.87-1.28-1.86-.06-1 1.2-1.52 1.31-1.98 1.31-.48 0-3.27-.68-3.61-1.55-.34-.86.87-1.5 1.9-2 1.03-.48 3.85-.47 4.57-.63 1.47-.32 3.35-1.04 4.29-.41.94.62-3.94 1.7-2.34 2.56.57.3 3.15-1.46 4.04-1.9 2.08-1.06-2.02-1.41-1.49-3.55.6-2.42-5.03-1.48-7.83-1.28a24.41 24.41 0 0 1 13.03-3.74 24.12 24.12 0 0 1 23.53 18.2c.02.5-.06.88-.12 1.1-.22.85-1.87 1.58-2.83.2-.25-.34-1.28-1.3-1.25.34.03 1.65 1.63 1.81.08 2.8-1.54.99-1.82.75-2.54 1-.71.25-1.4 1.94-1.23 2.85.17.9 2.38 3.38.74 3.28-.39-.03-3.28-1.97-3.75-3.21-.5-1.31-1.06-2.6-1.45-3.59-.4-.98-1.41-1.24-2.28-.66-.86.58.24 1.16-.38 2.4-.61 1.23-1.06 2.33-1.97 1.31-2.36-2.65-5.79-1.34-6.33-4.3-.29-1.6-1.7-1.44-2.87-2.35-1.18-.9-1.84-1.4-2.04-.74-.17.57 3.7 3.58 3.98 4.36.4 1.14-1.16 2.15-2.31 2.43-1.15.27-1.65-.64-2.78-1.79s-1.62-1.97-1.7-1.07c-.11 1.3 1.07 3.23 2.22 3.94.98.61 2.08.89 1.76 1.87-.32 1 0 .43-1.1 1.5s-1.31 1.41-1.23 2.9c.08 1.47-.32 1.56-.55 2.8-.24 1.22-.78.16-1.26 1.97m-13-26.17l.13-.14c.43-.5 1.3-.6 1.9-.69.6-.1 1.41.2 1.5.6.11.38-1.5 1.1-1.8 1.37-.83.75-2.14 2.3-2.9 2.46a.93.93 0 0 1-.63-.07c.5-1.23 1.1-2.41 1.8-3.53m1.24-2.42c.32-.45 1.36-1.74 1.48-1.9.27-.34.8-.4 1.17-.47.37-.07.86.13.92.4.07.28-.14 1.33-.32 1.51-.51.52-1.84 1.25-2.57 1.14-.56-.09-.78-.52-.68-.68M151.87 116a71.51 71.51 0 0 0-57.55-28.38 71.53 71.53 0 0 0-58.01 29.01 71.54 71.54 0 0 0 58.01 29.02 71.52 71.52 0 0 0 58-29.02l-.45-.63M17.48 14.26h4.66V49H16.3V22.41h-.05l-4.1 4.25h-.05v-6.1l5.38-6.3zm16.18-.4c5.38 0 7.74 3.02 7.74 7.93v3.03a5.56 5.56 0 0 1-4 5.63c2.92.66 4.3 2.71 4.3 5.89v5.12c0 4.82-2.56 7.94-8.45 7.94-5.94 0-8.04-3.38-8.04-8.66V36.2h5.33v4.96c0 2.05.72 3.38 2.71 3.38 1.8 0 2.62-1.28 2.62-3.12v-5.74c0-1.84-.82-2.81-2.87-2.81h-2.46V28.4h2.2c1.9 0 3.13-.97 3.13-2.82v-3.74c0-1.9-.67-3.12-2.51-3.12-1.85 0-2.51 1.23-2.51 3.38v3.53h-5.33v-3.07c0-5.12 2.1-8.7 8.14-8.7zm24.12 15.18c-2.63 0-3.73-1.71-3.73-4.02v-7.2c0-2.32 1.1-4.01 3.73-4.01 2.77 0 3.54 1.53 3.54 3.73v1.75h-2.28v-1.95c0-.92-.31-1.45-1.21-1.45-.9 0-1.27.64-1.27 1.54v7.99c0 .9.37 1.53 1.27 1.53s1.2-.57 1.2-1.44v-2.75h2.29v2.57c0 2.13-.88 3.7-3.54 3.7zm4.57-.18V13.98h2.5v12.84h2.99v2.04h-5.49zm6.3 0V13.98h2.5v14.88h-2.5zm10.51 0v-9.65h-.06l-1.7 9.65h-1.15l-1.87-9.65h-.04v9.65h-2.07V13.98h2.92l1.63 8.39h.02l1.45-8.39h3.16v14.88h-2.29zm5.36 0h-2.37l2.8-14.88h2.86l2.83 14.88h-2.56l-.46-2.72h-2.66l-.44 2.72zm1.76-10.69l-1 5.97h2l-.98-5.97h-.02zm3.68-2.15v-2.04h6.66v2.04h-2.07v12.84h-2.52V16.02h-2.07zm7.49 12.84V13.98h5.97v2.04h-3.47v4.26h2.48v2.02h-2.48v4.52h3.47v2.04h-5.97zM56.03 49.07h-2.37l2.8-14.88h2.86l2.83 14.88h-2.57l-.46-2.72h-2.65l-.44 2.72zm1.75-10.69l-.98 5.97h2l-1-5.97h-.02zm8.48 10.87c-2.64 0-3.73-1.72-3.73-4.02v-7.2c0-2.33 1.1-4.02 3.73-4.02 2.76 0 3.53 1.54 3.53 3.73v1.76h-2.28v-1.95c0-.92-.3-1.45-1.2-1.45-.9 0-1.28.64-1.28 1.53v8c0 .9.37 1.53 1.27 1.53s1.2-.57 1.2-1.45v-2.74h2.3v2.57c0 2.13-.89 3.7-3.54 3.7zm4.06-13.02v-2.04h6.65v2.04h-2.06v12.84h-2.53V36.23h-2.06zm7.48 12.84V34.2h2.5v14.88h-2.5zm7.4-1.9c.9 0 1.3-.65 1.3-1.55v-7.99c0-.9-.4-1.53-1.3-1.53-.88 0-1.27.64-1.27 1.53v8c0 .9.4 1.53 1.27 1.53zm0 2.08c-2.63 0-3.77-1.72-3.77-4.02v-7.2c0-2.33 1.14-4.02 3.77-4.02 2.66 0 3.8 1.7 3.8 4.02v7.2c0 2.3-1.14 4.02-3.8 4.02zm9.94-.18l-2.94-9.35v9.35h-2.1V34.2h2.45l2.7 8.54V34.2h2.09v14.88h-2.2z"
    />
  </g>
</svg>
