<svg viewBox="0 0 9 16" version="1.1" xmlns="http://www.w3.org/2000/svg" xmlns:xlink="http://www.w3.org/1999/xlink">
  <g fill="none" fill-rule="evenodd">
    <g id="Group" fill="black" fill-rule="nonzero">
      <path d="M4.61827225,10.7363902 L4.61827225,9.1235122 L5.71202285,10.2185366 C5.38896563,10.4695852 5.01571187,10.6463082 4.61827225,10.7363902 Z M1.20092813,8.00663415 C1.20092813,6.67004878 2.13776773,5.55278049 3.38958591,5.27453659 L3.38958591,10.7387317 C2.13776773,10.460878 1.20092813,9.34360976 1.20092813,8.00663415 Z M6.79574964,8.00663415 C6.79609092,8.44376594 6.69381504,8.87472395 6.49734888,9.264 L4.61827225,7.38380488 L4.61827225,5.27726829 C5.864693,5.55941463 6.79574964,6.67395122 6.79574964,8.00663415 Z M7.99783436,12.5053659 L8.86720609,11.635122 L7.377901,10.1451707 C7.78321281,9.50740913 7.99843891,8.76496018 7.99783436,8.00663415 C7.99783436,6.00780488 6.53243218,4.35121951 4.61827225,4.05307317 L4.61827225,0 L3.38958591,0 L3.38958591,4.05112195 C1.47041409,4.34458537 0,6.0035122 0,8.00663415 C0,10.0097561 1.47041409,11.6690732 3.38958591,11.9621463 L3.38958591,16 L4.61827225,16 L4.61827225,11.9601951 C5.33501232,11.8485568 6.00834052,11.5419695 6.56635888,11.0731707 L7.99783436,12.5053659 Z" id="Shape"></path>
    </g>
  </g>
</svg>
